<svg viewBox="0,0,954,2200" xmlns="http://www.w3.org/2000/svg" xmlns:xlink="http://www.w3.org/1999/xlink"><g font-family="sans-serif" font-size="10" transform="translate(63.6,1443.75)"><g fill="none" stroke="#555" stroke-opacity="0.4" stroke-width="1.5"><path d="M0,0C95.4,0,95.4,-578.75,190.8,-578.75"/><path d="M0,0C95.4,0,95.4,366.25,190.8,366.25"/><path d="M0,0C95.4,0,95.4,578.75,190.8,578.75"/><path d="M190.8,-578.75C286.20000000000005,-578.75,286.20000000000005,-1413.75,381.6,-1413.75"/><path d="M190.8,-578.75C286.20000000000005,-578.75,286.20000000000005,-1291.25,381.6,-1291.25"/><path d="M190.8,-578.75C286.20000000000005,-578.75,286.20000000000005,-1051.25,381.6,-1051.25"/><path d="M190.8,-578.75C286.20000000000005,-578.75,286.20000000000005,-783.75,381.6,-783.75"/><path d="M190.8,-578.75C286.20000000000005,-578.75,286.20000000000005,-351.25,381.6,-351.25"/><path d="M190.8,-578.75C286.20000000000005,-578.75,286.20000000000005,-1.25,381.6,-1.25"/><path d="M190.8,-578.75C286.20000000000005,-578.75,286.20000000000005,143.75,381.6,143.75"/><path d="M190.8,-578.75C286.20000000000005,-578.75,286.20000000000005,226.25,381.6,226.25"/><path d="M190.8,-578.75C286.20000000000005,-578.75,286.20000000000005,256.25,381.6,256.25"/><path d="M190.8,366.25C286.20000000000005,366.25,286.20000000000005,296.25,381.6,296.25"/><path d="M190.8,366.25C286.20000000000005,366.25,286.20000000000005,306.25,381.6,306.25"/><path d="M190.8,366.25C286.20000000000005,366.25,286.20000000000005,371.25,381.6,371.25"/><path d="M190.8,366.25C286.20000000000005,366.25,286.20000000000005,436.25,381.6,436.25"/><path d="M190.8,578.75C286.20000000000005,578.75,286.20000000000005,456.25,381.6,456.25"/><path d="M190.8,578.75C286.20000000000005,578.75,286.20000000000005,466.25,381.6,466.25"/><path d="M190.8,578.75C286.20000000000005,578.75,286.20000000000005,476.25,381.6,476.25"/><path d="M190.8,578.75C286.20000000000005,578.75,286.20000000000005,486.25,381.6,486.25"/><path d="M190.8,578.75C286.20000000000005,578.75,286.20000000000005,496.25,381.6,496.25"/><path d="M190.8,578.75C286.20000000000005,578.75,286.20000000000005,506.25,381.6,506.25"/><path d="M190.8,578.75C286.20000000000005,578.75,286.20000000000005,516.25,381.6,516.25"/><path d="M190.8,578.75C286.20000000000005,578.75,286.20000000000005,526.25,381.6,526.25"/><path d="M190.8,578.75C286.20000000000005,578.75,286.20000000000005,536.25,381.6,536.25"/><path d="M190.8,578.75C286.20000000000005,578.75,286.20000000000005,546.25,381.6,546.25"/><path d="M190.8,578.75C286.20000000000005,578.75,286.20000000000005,556.25,381.6,556.25"/><path d="M190.8,578.75C286.20000000000005,578.75,286.20000000000005,566.25,381.6,566.25"/><path d="M190.8,578.75C286.20000000000005,578.75,286.20000000000005,576.25,381.6,576.25"/><path d="M190.8,578.75C286.20000000000005,578.75,286.20000000000005,586.25,381.6,586.25"/><path d="M190.8,578.75C286.20000000000005,578.75,286.20000000000005,596.25,381.6,596.25"/><path d="M190.8,578.75C286.20000000000005,578.75,286.20000000000005,701.25,381.6,701.25"/><path d="M381.6,-1413.75C477.00000000000006,-1413.75,477.00000000000006,-1433.75,572.4000000000001,-1433.75"/><path d="M381.6,-1413.75C477.00000000000006,-1413.75,477.00000000000006,-1423.75,572.4000000000001,-1423.75"/><path d="M381.6,-1413.75C477.00000000000006,-1413.75,477.00000000000006,-1413.75,572.4000000000001,-1413.75"/><path d="M381.6,-1413.75C477.00000000000006,-1413.75,477.00000000000006,-1403.75,572.4000000000001,-1403.75"/><path d="M381.6,-1413.75C477.00000000000006,-1413.75,477.00000000000006,-1393.75,572.4000000000001,-1393.75"/><path d="M381.6,-1291.25C477.00000000000006,-1291.25,477.00000000000006,-1373.75,572.4000000000001,-1373.75"/><path d="M381.6,-1291.25C477.00000000000006,-1291.25,477.00000000000006,-1363.75,572.4000000000001,-1363.75"/><path d="M381.6,-1291.25C477.00000000000006,-1291.25,477.00000000000006,-1353.75,572.4000000000001,-1353.75"/><path d="M381.6,-1291.25C477.00000000000006,-1291.25,477.00000000000006,-1343.75,572.4000000000001,-1343.75"/><path d="M381.6,-1291.25C477.00000000000006,-1291.25,477.00000000000006,-1333.75,572.4000000000001,-1333.75"/><path d="M381.6,-1291.25C477.00000000000006,-1291.25,477.00000000000006,-1298.75,572.4000000000001,-1298.75"/><path d="M381.6,-1291.25C477.00000000000006,-1291.25,477.00000000000006,-1258.75,572.4000000000001,-1258.75"/><path d="M381.6,-1291.25C477.00000000000006,-1291.25,477.00000000000006,-1208.75,572.4000000000001,-1208.75"/><path d="M381.6,-1051.25C477.00000000000006,-1051.25,477.00000000000006,-1178.75,572.4000000000001,-1178.75"/><path d="M381.6,-1051.25C477.00000000000006,-1051.25,477.00000000000006,-1168.75,572.4000000000001,-1168.75"/><path d="M381.6,-1051.25C477.00000000000006,-1051.25,477.00000000000006,-1158.75,572.4000000000001,-1158.75"/><path d="M381.6,-1051.25C477.00000000000006,-1051.25,477.00000000000006,-1148.75,572.4000000000001,-1148.75"/><path d="M381.6,-1051.25C477.00000000000006,-1051.25,477.00000000000006,-1098.75,572.4000000000001,-1098.75"/><path d="M381.6,-1051.25C477.00000000000006,-1051.25,477.00000000000006,-1038.75,572.4000000000001,-1038.75"/><path d="M381.6,-1051.25C477.00000000000006,-1051.25,477.00000000000006,-973.75,572.4000000000001,-973.75"/><path d="M381.6,-1051.25C477.00000000000006,-1051.25,477.00000000000006,-923.75,572.4000000000001,-923.75"/><path d="M381.6,-783.75C477.00000000000006,-783.75,477.00000000000006,-903.75,572.4000000000001,-903.75"/><path d="M381.6,-783.75C477.00000000000006,-783.75,477.00000000000006,-893.75,572.4000000000001,-893.75"/><path d="M381.6,-783.75C477.00000000000006,-783.75,477.00000000000006,-883.75,572.4000000000001,-883.75"/><path d="M381.6,-783.75C477.00000000000006,-783.75,477.00000000000006,-783.75,572.4000000000001,-783.75"/><path d="M381.6,-783.75C477.00000000000006,-783.75,477.00000000000006,-663.75,572.4000000000001,-663.75"/><path d="M381.6,-351.25C477.00000000000006,-351.25,477.00000000000006,-628.75,572.4000000000001,-628.75"/><path d="M381.6,-351.25C477.00000000000006,-351.25,477.00000000000006,-618.75,572.4000000000001,-618.75"/><path d="M381.6,-351.25C477.00000000000006,-351.25,477.00000000000006,-608.75,572.4000000000001,-608.75"/><path d="M381.6,-351.25C477.00000000000006,-351.25,477.00000000000006,-588.75,572.4000000000001,-588.75"/><path d="M381.6,-351.25C477.00000000000006,-351.25,477.00000000000006,-568.75,572.4000000000001,-568.75"/><path d="M381.6,-351.25C477.00000000000006,-351.25,477.00000000000006,-528.75,572.4000000000001,-528.75"/><path d="M381.6,-351.25C477.00000000000006,-351.25,477.00000000000006,-518.75,572.4000000000001,-518.75"/><path d="M381.6,-351.25C477.00000000000006,-351.25,477.00000000000006,-508.75,572.4000000000001,-508.75"/><path d="M381.6,-351.25C477.00000000000006,-351.25,477.00000000000006,-498.75,572.4000000000001,-498.75"/><path d="M381.6,-351.25C477.00000000000006,-351.25,477.00000000000006,-488.75,572.4000000000001,-488.75"/><path d="M381.6,-351.25C477.00000000000006,-351.25,477.00000000000006,-478.75,572.4000000000001,-478.75"/><path d="M381.6,-351.25C477.00000000000006,-351.25,477.00000000000006,-468.75,572.4000000000001,-468.75"/><path d="M381.6,-351.25C477.00000000000006,-351.25,477.00000000000006,-458.75,572.4000000000001,-458.75"/><path d="M381.6,-351.25C477.00000000000006,-351.25,477.00000000000006,-398.75,572.4000000000001,-398.75"/><path d="M381.6,-351.25C477.00000000000006,-351.25,477.00000000000006,-338.75,572.4000000000001,-338.75"/><path d="M381.6,-351.25C477.00000000000006,-351.25,477.00000000000006,-278.75,572.4000000000001,-278.75"/><path d="M381.6,-351.25C477.00000000000006,-351.25,477.00000000000006,-208.75,572.4000000000001,-208.75"/><path d="M381.6,-351.25C477.00000000000006,-351.25,477.00000000000006,-138.75,572.4000000000001,-138.75"/><path d="M381.6,-351.25C477.00000000000006,-351.25,477.00000000000006,-103.75,572.4000000000001,-103.75"/><path d="M381.6,-351.25C477.00000000000006,-351.25,477.00000000000006,-73.75,572.4000000000001,-73.75"/><path d="M381.6,-1.25C477.00000000000006,-1.25,477.00000000000006,-53.75,572.4000000000001,-53.75"/><path d="M381.6,-1.25C477.00000000000006,-1.25,477.00000000000006,-43.75,572.4000000000001,-43.75"/><path d="M381.6,-1.25C477.00000000000006,-1.25,477.00000000000006,-33.75,572.4000000000001,-33.75"/><path d="M381.6,-1.25C477.00000000000006,-1.25,477.00000000000006,11.25,572.4000000000001,11.25"/><path d="M381.6,-1.25C477.00000000000006,-1.25,477.00000000000006,51.25,572.4000000000001,51.25"/><path d="M381.6,143.75C477.00000000000006,143.75,477.00000000000006,86.25,572.4000000000001,86.25"/><path d="M381.6,143.75C477.00000000000006,143.75,477.00000000000006,96.25,572.4000000000001,96.25"/><path d="M381.6,143.75C477.00000000000006,143.75,477.00000000000006,106.25,572.4000000000001,106.25"/><path d="M381.6,143.75C477.00000000000006,143.75,477.00000000000006,116.25,572.4000000000001,116.25"/><path d="M381.6,143.75C477.00000000000006,143.75,477.00000000000006,126.25,572.4000000000001,126.25"/><path d="M381.6,143.75C477.00000000000006,143.75,477.00000000000006,201.25,572.4000000000001,201.25"/><path d="M381.6,226.25C477.00000000000006,226.25,477.00000000000006,221.25,572.4000000000001,221.25"/><path d="M381.6,226.25C477.00000000000006,226.25,477.00000000000006,231.25,572.4000000000001,231.25"/><path d="M381.6,256.25C477.00000000000006,256.25,477.00000000000006,251.25,572.4000000000001,251.25"/><path d="M381.6,256.25C477.00000000000006,256.25,477.00000000000006,261.25,572.4000000000001,261.25"/><path d="M381.6,306.25C477.00000000000006,306.25,477.00000000000006,281.25,572.4000000000001,281.25"/><path d="M381.6,306.25C477.00000000000006,306.25,477.00000000000006,291.25,572.4000000000001,291.25"/><path d="M381.6,306.25C477.00000000000006,306.25,477.00000000000006,301.25,572.4000000000001,301.25"/><path d="M381.6,306.25C477.00000000000006,306.25,477.00000000000006,311.25,572.4000000000001,311.25"/><path d="M381.6,306.25C477.00000000000006,306.25,477.00000000000006,321.25,572.4000000000001,321.25"/><path d="M381.6,306.25C477.00000000000006,306.25,477.00000000000006,331.25,572.4000000000001,331.25"/><path d="M381.6,371.25C477.00000000000006,371.25,477.00000000000006,351.25,572.4000000000001,351.25"/><path d="M381.6,371.25C477.00000000000006,371.25,477.00000000000006,361.25,572.4000000000001,361.25"/><path d="M381.6,371.25C477.00000000000006,371.25,477.00000000000006,371.25,572.4000000000001,371.25"/><path d="M381.6,371.25C477.00000000000006,371.25,477.00000000000006,381.25,572.4000000000001,381.25"/><path d="M381.6,371.25C477.00000000000006,371.25,477.00000000000006,391.25,572.4000000000001,391.25"/><path d="M381.6,436.25C477.00000000000006,436.25,477.00000000000006,411.25,572.4000000000001,411.25"/><path d="M381.6,436.25C477.00000000000006,436.25,477.00000000000006,421.25,572.4000000000001,421.25"/><path d="M381.6,436.25C477.00000000000006,436.25,477.00000000000006,431.25,572.4000000000001,431.25"/><path d="M381.6,436.25C477.00000000000006,436.25,477.00000000000006,441.25,572.4000000000001,441.25"/><path d="M381.6,436.25C477.00000000000006,436.25,477.00000000000006,451.25,572.4000000000001,451.25"/><path d="M381.6,436.25C477.00000000000006,436.25,477.00000000000006,461.25,572.4000000000001,461.25"/><path d="M381.6,596.25C477.00000000000006,596.25,477.00000000000006,546.25,572.4000000000001,546.25"/><path d="M381.6,596.25C477.00000000000006,596.25,477.00000000000006,556.25,572.4000000000001,556.25"/><path d="M381.6,596.25C477.00000000000006,596.25,477.00000000000006,566.25,572.4000000000001,566.25"/><path d="M381.6,596.25C477.00000000000006,596.25,477.00000000000006,576.25,572.4000000000001,576.25"/><path d="M381.6,596.25C477.00000000000006,596.25,477.00000000000006,586.25,572.4000000000001,586.25"/><path d="M381.6,596.25C477.00000000000006,596.25,477.00000000000006,596.25,572.4000000000001,596.25"/><path d="M381.6,596.25C477.00000000000006,596.25,477.00000000000006,606.25,572.4000000000001,606.25"/><path d="M381.6,596.25C477.00000000000006,596.25,477.00000000000006,616.25,572.4000000000001,616.25"/><path d="M381.6,596.25C477.00000000000006,596.25,477.00000000000006,626.25,572.4000000000001,626.25"/><path d="M381.6,596.25C477.00000000000006,596.25,477.00000000000006,636.25,572.4000000000001,636.25"/><path d="M381.6,596.25C477.00000000000006,596.25,477.00000000000006,646.25,572.4000000000001,646.25"/><path d="M381.6,701.25C477.00000000000006,701.25,477.00000000000006,666.25,572.4000000000001,666.25"/><path d="M381.6,701.25C477.00000000000006,701.25,477.00000000000006,676.25,572.4000000000001,676.25"/><path d="M381.6,701.25C477.00000000000006,701.25,477.00000000000006,686.25,572.4000000000001,686.25"/><path d="M381.6,701.25C477.00000000000006,701.25,477.00000000000006,696.25,572.4000000000001,696.25"/><path d="M381.6,701.25C477.00000000000006,701.25,477.00000000000006,706.25,572.4000000000001,706.25"/><path d="M381.6,701.25C477.00000000000006,701.25,477.00000000000006,716.25,572.4000000000001,716.25"/><path d="M381.6,701.25C477.00000000000006,701.25,477.00000000000006,726.25,572.4000000000001,726.25"/><path d="M381.6,701.25C477.00000000000006,701.25,477.00000000000006,736.25,572.4000000000001,736.25"/><path d="M572.4000000000001,-1333.75C667.8000000000001,-1333.75,667.8000000000001,-1338.75,763.2,-1338.75"/><path d="M572.4000000000001,-1333.75C667.8000000000001,-1333.75,667.8000000000001,-1328.75,763.2,-1328.75"/><path d="M572.4000000000001,-1298.75C667.8000000000001,-1298.75,667.8000000000001,-1308.75,763.2,-1308.75"/><path d="M572.4000000000001,-1298.75C667.8000000000001,-1298.75,667.8000000000001,-1298.75,763.2,-1298.75"/><path d="M572.4000000000001,-1298.75C667.8000000000001,-1298.75,667.8000000000001,-1288.75,763.2,-1288.75"/><path d="M572.4000000000001,-1258.75C667.8000000000001,-1258.75,667.8000000000001,-1268.75,763.2,-1268.75"/><path d="M572.4000000000001,-1258.75C667.8000000000001,-1258.75,667.8000000000001,-1258.75,763.2,-1258.75"/><path d="M572.4000000000001,-1258.75C667.8000000000001,-1258.75,667.8000000000001,-1248.75,763.2,-1248.75"/><path d="M572.4000000000001,-1208.75C667.8000000000001,-1208.75,667.8000000000001,-1228.75,763.2,-1228.75"/><path d="M572.4000000000001,-1208.75C667.8000000000001,-1208.75,667.8000000000001,-1218.75,763.2,-1218.75"/><path d="M572.4000000000001,-1208.75C667.8000000000001,-1208.75,667.8000000000001,-1208.75,763.2,-1208.75"/><path d="M572.4000000000001,-1208.75C667.8000000000001,-1208.75,667.8000000000001,-1198.75,763.2,-1198.75"/><path d="M572.4000000000001,-1208.75C667.8000000000001,-1208.75,667.8000000000001,-1188.75,763.2,-1188.75"/><path d="M572.4000000000001,-1148.75C667.8000000000001,-1148.75,667.8000000000001,-1168.75,763.2,-1168.75"/><path d="M572.4000000000001,-1148.75C667.8000000000001,-1148.75,667.8000000000001,-1158.75,763.2,-1158.75"/><path d="M572.4000000000001,-1148.75C667.8000000000001,-1148.75,667.8000000000001,-1148.75,763.2,-1148.75"/><path d="M572.4000000000001,-1148.75C667.8000000000001,-1148.75,667.8000000000001,-1138.75,763.2,-1138.75"/><path d="M572.4000000000001,-1148.75C667.8000000000001,-1148.75,667.8000000000001,-1128.75,763.2,-1128.75"/><path d="M572.4000000000001,-1098.75C667.8000000000001,-1098.75,667.8000000000001,-1108.75,763.2,-1108.75"/><path d="M572.4000000000001,-1098.75C667.8000000000001,-1098.75,667.8000000000001,-1098.75,763.2,-1098.75"/><path d="M572.4000000000001,-1098.75C667.8000000000001,-1098.75,667.8000000000001,-1088.75,763.2,-1088.75"/><path d="M572.4000000000001,-1038.75C667.8000000000001,-1038.75,667.8000000000001,-1068.75,763.2,-1068.75"/><path d="M572.4000000000001,-1038.75C667.8000000000001,-1038.75,667.8000000000001,-1058.75,763.2,-1058.75"/><path d="M572.4000000000001,-1038.75C667.8000000000001,-1038.75,667.8000000000001,-1048.75,763.2,-1048.75"/><path d="M572.4000000000001,-1038.75C667.8000000000001,-1038.75,667.8000000000001,-1038.75,763.2,-1038.75"/><path d="M572.4000000000001,-1038.75C667.8000000000001,-1038.75,667.8000000000001,-1028.75,763.2,-1028.75"/><path d="M572.4000000000001,-1038.75C667.8000000000001,-1038.75,667.8000000000001,-1018.75,763.2,-1018.75"/><path d="M572.4000000000001,-1038.75C667.8000000000001,-1038.75,667.8000000000001,-1008.75,763.2,-1008.75"/><path d="M572.4000000000001,-973.75C667.8000000000001,-973.75,667.8000000000001,-988.75,763.2,-988.75"/><path d="M572.4000000000001,-973.75C667.8000000000001,-973.75,667.8000000000001,-978.75,763.2,-978.75"/><path d="M572.4000000000001,-973.75C667.8000000000001,-973.75,667.8000000000001,-968.75,763.2,-968.75"/><path d="M572.4000000000001,-973.75C667.8000000000001,-973.75,667.8000000000001,-958.75,763.2,-958.75"/><path d="M572.4000000000001,-923.75C667.8000000000001,-923.75,667.8000000000001,-938.75,763.2,-938.75"/><path d="M572.4000000000001,-923.75C667.8000000000001,-923.75,667.8000000000001,-928.75,763.2,-928.75"/><path d="M572.4000000000001,-923.75C667.8000000000001,-923.75,667.8000000000001,-918.75,763.2,-918.75"/><path d="M572.4000000000001,-923.75C667.8000000000001,-923.75,667.8000000000001,-908.75,763.2,-908.75"/><path d="M572.4000000000001,-883.75C667.8000000000001,-883.75,667.8000000000001,-888.75,763.2,-888.75"/><path d="M572.4000000000001,-883.75C667.8000000000001,-883.75,667.8000000000001,-878.75,763.2,-878.75"/><path d="M572.4000000000001,-783.75C667.8000000000001,-783.75,667.8000000000001,-858.75,763.2,-858.75"/><path d="M572.4000000000001,-783.75C667.8000000000001,-783.75,667.8000000000001,-848.75,763.2,-848.75"/><path d="M572.4000000000001,-783.75C667.8000000000001,-783.75,667.8000000000001,-838.75,763.2,-838.75"/><path d="M572.4000000000001,-783.75C667.8000000000001,-783.75,667.8000000000001,-828.75,763.2,-828.75"/><path d="M572.4000000000001,-783.75C667.8000000000001,-783.75,667.8000000000001,-818.75,763.2,-818.75"/><path d="M572.4000000000001,-783.75C667.8000000000001,-783.75,667.8000000000001,-808.75,763.2,-808.75"/><path d="M572.4000000000001,-783.75C667.8000000000001,-783.75,667.8000000000001,-798.75,763.2,-798.75"/><path d="M572.4000000000001,-783.75C667.8000000000001,-783.75,667.8000000000001,-788.75,763.2,-788.75"/><path d="M572.4000000000001,-783.75C667.8000000000001,-783.75,667.8000000000001,-778.75,763.2,-778.75"/><path d="M572.4000000000001,-783.75C667.8000000000001,-783.75,667.8000000000001,-768.75,763.2,-768.75"/><path d="M572.4000000000001,-783.75C667.8000000000001,-783.75,667.8000000000001,-758.75,763.2,-758.75"/><path d="M572.4000000000001,-783.75C667.8000000000001,-783.75,667.8000000000001,-748.75,763.2,-748.75"/><path d="M572.4000000000001,-783.75C667.8000000000001,-783.75,667.8000000000001,-738.75,763.2,-738.75"/><path d="M572.4000000000001,-783.75C667.8000000000001,-783.75,667.8000000000001,-728.75,763.2,-728.75"/><path d="M572.4000000000001,-783.75C667.8000000000001,-783.75,667.8000000000001,-718.75,763.2,-718.75"/><path d="M572.4000000000001,-783.75C667.8000000000001,-783.75,667.8000000000001,-708.75,763.2,-708.75"/><path d="M572.4000000000001,-663.75C667.8000000000001,-663.75,667.8000000000001,-688.75,763.2,-688.75"/><path d="M572.4000000000001,-663.75C667.8000000000001,-663.75,667.8000000000001,-678.75,763.2,-678.75"/><path d="M572.4000000000001,-663.75C667.8000000000001,-663.75,667.8000000000001,-668.75,763.2,-668.75"/><path d="M572.4000000000001,-663.75C667.8000000000001,-663.75,667.8000000000001,-658.75,763.2,-658.75"/><path d="M572.4000000000001,-663.75C667.8000000000001,-663.75,667.8000000000001,-648.75,763.2,-648.75"/><path d="M572.4000000000001,-663.75C667.8000000000001,-663.75,667.8000000000001,-638.75,763.2,-638.75"/><path d="M572.4000000000001,-608.75C667.8000000000001,-608.75,667.8000000000001,-618.75,763.2,-618.75"/><path d="M572.4000000000001,-608.75C667.8000000000001,-608.75,667.8000000000001,-608.75,763.2,-608.75"/><path d="M572.4000000000001,-608.75C667.8000000000001,-608.75,667.8000000000001,-598.75,763.2,-598.75"/><path d="M572.4000000000001,-568.75C667.8000000000001,-568.75,667.8000000000001,-578.75,763.2,-578.75"/><path d="M572.4000000000001,-568.75C667.8000000000001,-568.75,667.8000000000001,-568.75,763.2,-568.75"/><path d="M572.4000000000001,-568.75C667.8000000000001,-568.75,667.8000000000001,-558.75,763.2,-558.75"/><path d="M572.4000000000001,-528.75C667.8000000000001,-528.75,667.8000000000001,-538.75,763.2,-538.75"/><path d="M572.4000000000001,-528.75C667.8000000000001,-528.75,667.8000000000001,-528.75,763.2,-528.75"/><path d="M572.4000000000001,-528.75C667.8000000000001,-528.75,667.8000000000001,-518.75,763.2,-518.75"/><path d="M572.4000000000001,-458.75C667.8000000000001,-458.75,667.8000000000001,-488.75,763.2,-488.75"/><path d="M572.4000000000001,-458.75C667.8000000000001,-458.75,667.8000000000001,-478.75,763.2,-478.75"/><path d="M572.4000000000001,-458.75C667.8000000000001,-458.75,667.8000000000001,-468.75,763.2,-468.75"/><path d="M572.4000000000001,-458.75C667.8000000000001,-458.75,667.8000000000001,-458.75,763.2,-458.75"/><path d="M572.4000000000001,-458.75C667.8000000000001,-458.75,667.8000000000001,-448.75,763.2,-448.75"/><path d="M572.4000000000001,-458.75C667.8000000000001,-458.75,667.8000000000001,-438.75,763.2,-438.75"/><path d="M572.4000000000001,-458.75C667.8000000000001,-458.75,667.8000000000001,-428.75,763.2,-428.75"/><path d="M572.4000000000001,-398.75C667.8000000000001,-398.75,667.8000000000001,-408.75,763.2,-408.75"/><path d="M572.4000000000001,-398.75C667.8000000000001,-398.75,667.8000000000001,-398.75,763.2,-398.75"/><path d="M572.4000000000001,-398.75C667.8000000000001,-398.75,667.8000000000001,-388.75,763.2,-388.75"/><path d="M572.4000000000001,-338.75C667.8000000000001,-338.75,667.8000000000001,-368.75,763.2,-368.75"/><path d="M572.4000000000001,-338.75C667.8000000000001,-338.75,667.8000000000001,-358.75,763.2,-358.75"/><path d="M572.4000000000001,-338.75C667.8000000000001,-338.75,667.8000000000001,-348.75,763.2,-348.75"/><path d="M572.4000000000001,-338.75C667.8000000000001,-338.75,667.8000000000001,-338.75,763.2,-338.75"/><path d="M572.4000000000001,-338.75C667.8000000000001,-338.75,667.8000000000001,-328.75,763.2,-328.75"/><path d="M572.4000000000001,-338.75C667.8000000000001,-338.75,667.8000000000001,-318.75,763.2,-318.75"/><path d="M572.4000000000001,-338.75C667.8000000000001,-338.75,667.8000000000001,-308.75,763.2,-308.75"/><path d="M572.4000000000001,-278.75C667.8000000000001,-278.75,667.8000000000001,-288.75,763.2,-288.75"/><path d="M572.4000000000001,-278.75C667.8000000000001,-278.75,667.8000000000001,-278.75,763.2,-278.75"/><path d="M572.4000000000001,-278.75C667.8000000000001,-278.75,667.8000000000001,-268.75,763.2,-268.75"/><path d="M572.4000000000001,-208.75C667.8000000000001,-208.75,667.8000000000001,-248.75,763.2,-248.75"/><path d="M572.4000000000001,-208.75C667.8000000000001,-208.75,667.8000000000001,-238.75,763.2,-238.75"/><path d="M572.4000000000001,-208.75C667.8000000000001,-208.75,667.8000000000001,-228.75,763.2,-228.75"/><path d="M572.4000000000001,-208.75C667.8000000000001,-208.75,667.8000000000001,-218.75,763.2,-218.75"/><path d="M572.4000000000001,-208.75C667.8000000000001,-208.75,667.8000000000001,-208.75,763.2,-208.75"/><path d="M572.4000000000001,-208.75C667.8000000000001,-208.75,667.8000000000001,-198.75,763.2,-198.75"/><path d="M572.4000000000001,-208.75C667.8000000000001,-208.75,667.8000000000001,-188.75,763.2,-188.75"/><path d="M572.4000000000001,-208.75C667.8000000000001,-208.75,667.8000000000001,-178.75,763.2,-178.75"/><path d="M572.4000000000001,-208.75C667.8000000000001,-208.75,667.8000000000001,-168.75,763.2,-168.75"/><path d="M572.4000000000001,-138.75C667.8000000000001,-138.75,667.8000000000001,-148.75,763.2,-148.75"/><path d="M572.4000000000001,-138.75C667.8000000000001,-138.75,667.8000000000001,-138.75,763.2,-138.75"/><path d="M572.4000000000001,-138.75C667.8000000000001,-138.75,667.8000000000001,-128.75,763.2,-128.75"/><path d="M572.4000000000001,-103.75C667.8000000000001,-103.75,667.8000000000001,-108.75,763.2,-108.75"/><path d="M572.4000000000001,-103.75C667.8000000000001,-103.75,667.8000000000001,-98.75,763.2,-98.75"/><path d="M572.4000000000001,-73.75C667.8000000000001,-73.75,667.8000000000001,-78.75,763.2,-78.75"/><path d="M572.4000000000001,-73.75C667.8000000000001,-73.75,667.8000000000001,-68.75,763.2,-68.75"/><path d="M572.4000000000001,-33.75C667.8000000000001,-33.75,667.8000000000001,-48.75,763.2,-48.75"/><path d="M572.4000000000001,-33.75C667.8000000000001,-33.75,667.8000000000001,-38.75,763.2,-38.75"/><path d="M572.4000000000001,-33.75C667.8000000000001,-33.75,667.8000000000001,-28.75,763.2,-28.75"/><path d="M572.4000000000001,-33.75C667.8000000000001,-33.75,667.8000000000001,-18.75,763.2,-18.75"/><path d="M572.4000000000001,11.25C667.8000000000001,11.25,667.8000000000001,1.25,763.2,1.25"/><path d="M572.4000000000001,11.25C667.8000000000001,11.25,667.8000000000001,11.25,763.2,11.25"/><path d="M572.4000000000001,11.25C667.8000000000001,11.25,667.8000000000001,21.25,763.2,21.25"/><path d="M572.4000000000001,51.25C667.8000000000001,51.25,667.8000000000001,41.25,763.2,41.25"/><path d="M572.4000000000001,51.25C667.8000000000001,51.25,667.8000000000001,51.25,763.2,51.25"/><path d="M572.4000000000001,51.25C667.8000000000001,51.25,667.8000000000001,61.25,763.2,61.25"/><path d="M572.4000000000001,126.25C667.8000000000001,126.25,667.8000000000001,81.25,763.2,81.25"/><path d="M572.4000000000001,126.25C667.8000000000001,126.25,667.8000000000001,91.25,763.2,91.25"/><path d="M572.4000000000001,126.25C667.8000000000001,126.25,667.8000000000001,101.25,763.2,101.25"/><path d="M572.4000000000001,126.25C667.8000000000001,126.25,667.8000000000001,111.25,763.2,111.25"/><path d="M572.4000000000001,126.25C667.8000000000001,126.25,667.8000000000001,121.25,763.2,121.25"/><path d="M572.4000000000001,126.25C667.8000000000001,126.25,667.8000000000001,131.25,763.2,131.25"/><path d="M572.4000000000001,126.25C667.8000000000001,126.25,667.8000000000001,141.25,763.2,141.25"/><path d="M572.4000000000001,126.25C667.8000000000001,126.25,667.8000000000001,151.25,763.2,151.25"/><path d="M572.4000000000001,126.25C667.8000000000001,126.25,667.8000000000001,161.25,763.2,161.25"/><path d="M572.4000000000001,126.25C667.8000000000001,126.25,667.8000000000001,171.25,763.2,171.25"/><path d="M572.4000000000001,201.25C667.8000000000001,201.25,667.8000000000001,191.25,763.2,191.25"/><path d="M572.4000000000001,201.25C667.8000000000001,201.25,667.8000000000001,201.25,763.2,201.25"/><path d="M572.4000000000001,201.25C667.8000000000001,201.25,667.8000000000001,211.25,763.2,211.25"/><path d="M572.4000000000001,696.25C667.8000000000001,696.25,667.8000000000001,691.25,763.2,691.25"/><path d="M572.4000000000001,696.25C667.8000000000001,696.25,667.8000000000001,701.25,763.2,701.25"/><path d="M572.4000000000001,736.25C667.8000000000001,736.25,667.8000000000001,726.25,763.2,726.25"/><path d="M572.4000000000001,736.25C667.8000000000001,736.25,667.8000000000001,736.25,763.2,736.25"/><path d="M572.4000000000001,736.25C667.8000000000001,736.25,667.8000000000001,746.25,763.2,746.25"/></g><g stroke-linejoin="round" stroke-width="3"><g transform="translate(0,0)"><text dy="0.31em" x="-6" text-anchor="end" stroke="white">TOP</text><circle fill="#555" r="2.5"/><text dy="0.31em" x="-6" text-anchor="end">TOP</text></g><g transform="translate(190.8,-578.75)"><text dy="0.31em" x="-6" text-anchor="end" stroke="white">NAME</text><circle fill="#555" r="2.5"/><text dy="0.31em" x="-6" text-anchor="end">NAME</text></g><g transform="translate(190.8,366.25)"><text dy="0.31em" x="-6" text-anchor="end" stroke="white">TIME TOP</text><circle fill="#555" r="2.5"/><text dy="0.31em" x="-6" text-anchor="end">TIME TOP</text></g><g transform="translate(190.8,578.75)"><text dy="0.31em" x="-6" text-anchor="end" stroke="white">NUMEX</text><circle fill="#555" r="2.5"/><text dy="0.31em" x="-6" text-anchor="end">NUMEX</text></g><g transform="translate(381.6,-1413.75)"><text dy="0.31em" x="-6" text-anchor="end" stroke="white">Person</text><circle fill="#555" r="2.5"/><text dy="0.31em" x="-6" text-anchor="end">Person</text></g><g transform="translate(381.6,-1291.25)"><text dy="0.31em" x="-6" text-anchor="end" stroke="white">Organisation</text><circle fill="#555" r="2.5"/><text dy="0.31em" x="-6" text-anchor="end">Organisation</text></g><g transform="translate(381.6,-1051.25)"><text dy="0.31em" x="-6" text-anchor="end" stroke="white">Location</text><circle fill="#555" r="2.5"/><text dy="0.31em" x="-6" text-anchor="end">Location</text></g><g transform="translate(381.6,-783.75)"><text dy="0.31em" x="-6" text-anchor="end" stroke="white">Facility</text><circle fill="#555" r="2.5"/><text dy="0.31em" x="-6" text-anchor="end">Facility</text></g><g transform="translate(381.6,-351.25)"><text dy="0.31em" x="-6" text-anchor="end" stroke="white">Product</text><circle fill="#555" r="2.5"/><text dy="0.31em" x="-6" text-anchor="end">Product</text></g><g transform="translate(381.6,-1.25)"><text dy="0.31em" x="-6" text-anchor="end" stroke="white">Event</text><circle fill="#555" r="2.5"/><text dy="0.31em" x="-6" text-anchor="end">Event</text></g><g transform="translate(381.6,143.75)"><text dy="0.31em" x="-6" text-anchor="end" stroke="white">Natural Object</text><circle fill="#555" r="2.5"/><text dy="0.31em" x="-6" text-anchor="end">Natural Object</text></g><g transform="translate(381.6,226.25)"><text dy="0.31em" x="-6" text-anchor="end" stroke="white">Disease</text><circle fill="#555" r="2.5"/><text dy="0.31em" x="-6" text-anchor="end">Disease</text></g><g transform="translate(381.6,256.25)"><text dy="0.31em" x="-6" text-anchor="end" stroke="white">Color</text><circle fill="#555" r="2.5"/><text dy="0.31em" x="-6" text-anchor="end">Color</text></g><g transform="translate(381.6,296.25)"><text dy="0.31em" x="6" text-anchor="start" stroke="white">Time TOP Other</text><circle fill="#999" r="2.5"/><text dy="0.31em" x="6" text-anchor="start">Time TOP Other</text></g><g transform="translate(381.6,306.25)"><text dy="0.31em" x="-6" text-anchor="end" stroke="white">Timex</text><circle fill="#555" r="2.5"/><text dy="0.31em" x="-6" text-anchor="end">Timex</text></g><g transform="translate(381.6,371.25)"><text dy="0.31em" x="-6" text-anchor="end" stroke="white">Timex Relative</text><circle fill="#555" r="2.5"/><text dy="0.31em" x="-6" text-anchor="end">Timex Relative</text></g><g transform="translate(381.6,436.25)"><text dy="0.31em" x="-6" text-anchor="end" stroke="white">Periodx</text><circle fill="#555" r="2.5"/><text dy="0.31em" x="-6" text-anchor="end">Periodx</text></g><g transform="translate(381.6,456.25)"><text dy="0.31em" x="6" text-anchor="start" stroke="white">Numex Other</text><circle fill="#999" r="2.5"/><text dy="0.31em" x="6" text-anchor="start">Numex Other</text></g><g transform="translate(381.6,466.25)"><text dy="0.31em" x="6" text-anchor="start" stroke="white">Money</text><circle fill="#999" r="2.5"/><text dy="0.31em" x="6" text-anchor="start">Money</text></g><g transform="translate(381.6,476.25)"><text dy="0.31em" x="6" text-anchor="start" stroke="white">Stock Index</text><circle fill="#999" r="2.5"/><text dy="0.31em" x="6" text-anchor="start">Stock Index</text></g><g transform="translate(381.6,486.25)"><text dy="0.31em" x="6" text-anchor="start" stroke="white">Point</text><circle fill="#999" r="2.5"/><text dy="0.31em" x="6" text-anchor="start">Point</text></g><g transform="translate(381.6,496.25)"><text dy="0.31em" x="6" text-anchor="start" stroke="white">Percent</text><circle fill="#999" r="2.5"/><text dy="0.31em" x="6" text-anchor="start">Percent</text></g><g transform="translate(381.6,506.25)"><text dy="0.31em" x="6" text-anchor="start" stroke="white">Multiplication</text><circle fill="#999" r="2.5"/><text dy="0.31em" x="6" text-anchor="start">Multiplication</text></g><g transform="translate(381.6,516.25)"><text dy="0.31em" x="6" text-anchor="start" stroke="white">Frequency</text><circle fill="#999" r="2.5"/><text dy="0.31em" x="6" text-anchor="start">Frequency</text></g><g transform="translate(381.6,526.25)"><text dy="0.31em" x="6" text-anchor="start" stroke="white">Age</text><circle fill="#999" r="2.5"/><text dy="0.31em" x="6" text-anchor="start">Age</text></g><g transform="translate(381.6,536.25)"><text dy="0.31em" x="6" text-anchor="start" stroke="white">School Age</text><circle fill="#999" r="2.5"/><text dy="0.31em" x="6" text-anchor="start">School Age</text></g><g transform="translate(381.6,546.25)"><text dy="0.31em" x="6" text-anchor="start" stroke="white">Phone Number</text><circle fill="#999" r="2.5"/><text dy="0.31em" x="6" text-anchor="start">Phone Number</text></g><g transform="translate(381.6,556.25)"><text dy="0.31em" x="6" text-anchor="start" stroke="white">ID Number</text><circle fill="#999" r="2.5"/><text dy="0.31em" x="6" text-anchor="start">ID Number</text></g><g transform="translate(381.6,566.25)"><text dy="0.31em" x="6" text-anchor="start" stroke="white">Ordinal Number</text><circle fill="#999" r="2.5"/><text dy="0.31em" x="6" text-anchor="start">Ordinal Number</text></g><g transform="translate(381.6,576.25)"><text dy="0.31em" x="6" text-anchor="start" stroke="white">Rank</text><circle fill="#999" r="2.5"/><text dy="0.31em" x="6" text-anchor="start">Rank</text></g><g transform="translate(381.6,586.25)"><text dy="0.31em" x="6" text-anchor="start" stroke="white">Latitude Longitude</text><circle fill="#999" r="2.5"/><text dy="0.31em" x="6" text-anchor="start">Latitude Longitude</text></g><g transform="translate(381.6,596.25)"><text dy="0.31em" x="-6" text-anchor="end" stroke="white">Measurement</text><circle fill="#555" r="2.5"/><text dy="0.31em" x="-6" text-anchor="end">Measurement</text></g><g transform="translate(381.6,701.25)"><text dy="0.31em" x="-6" text-anchor="end" stroke="white">Countx</text><circle fill="#555" r="2.5"/><text dy="0.31em" x="-6" text-anchor="end">Countx</text></g><g transform="translate(572.4000000000001,-1433.75)"><text dy="0.31em" x="6" text-anchor="start" stroke="white">Name</text><circle fill="#999" r="2.5"/><text dy="0.31em" x="6" text-anchor="start">Name</text></g><g transform="translate(572.4000000000001,-1423.75)"><text dy="0.31em" x="6" text-anchor="start" stroke="white">Fictional</text><circle fill="#999" r="2.5"/><text dy="0.31em" x="6" text-anchor="start">Fictional</text></g><g transform="translate(572.4000000000001,-1413.75)"><text dy="0.31em" x="6" text-anchor="start" stroke="white">Entity</text><circle fill="#999" r="2.5"/><text dy="0.31em" x="6" text-anchor="start">Entity</text></g><g transform="translate(572.4000000000001,-1403.75)"><text dy="0.31em" x="6" text-anchor="start" stroke="white">Profession</text><circle fill="#999" r="2.5"/><text dy="0.31em" x="6" text-anchor="start">Profession</text></g><g transform="translate(572.4000000000001,-1393.75)"><text dy="0.31em" x="6" text-anchor="start" stroke="white">Other</text><circle fill="#999" r="2.5"/><text dy="0.31em" x="6" text-anchor="start">Other</text></g><g transform="translate(572.4000000000001,-1373.75)"><text dy="0.31em" x="6" text-anchor="start" stroke="white">Organisation Other</text><circle fill="#999" r="2.5"/><text dy="0.31em" x="6" text-anchor="start">Organisation Other</text></g><g transform="translate(572.4000000000001,-1363.75)"><text dy="0.31em" x="6" text-anchor="start" stroke="white">International Organisation</text><circle fill="#999" r="2.5"/><text dy="0.31em" x="6" text-anchor="start">International Organisation</text></g><g transform="translate(572.4000000000001,-1353.75)"><text dy="0.31em" x="6" text-anchor="start" stroke="white">Show Organisation</text><circle fill="#999" r="2.5"/><text dy="0.31em" x="6" text-anchor="start">Show Organisation</text></g><g transform="translate(572.4000000000001,-1343.75)"><text dy="0.31em" x="6" text-anchor="start" stroke="white">Family</text><circle fill="#999" r="2.5"/><text dy="0.31em" x="6" text-anchor="start">Family</text></g><g transform="translate(572.4000000000001,-1333.75)"><text dy="0.31em" x="-6" text-anchor="end" stroke="white">Ethnic Group</text><circle fill="#555" r="2.5"/><text dy="0.31em" x="-6" text-anchor="end">Ethnic Group</text></g><g transform="translate(572.4000000000001,-1298.75)"><text dy="0.31em" x="-6" text-anchor="end" stroke="white">Sports Organisation</text><circle fill="#555" r="2.5"/><text dy="0.31em" x="-6" text-anchor="end">Sports Organisation</text></g><g transform="translate(572.4000000000001,-1258.75)"><text dy="0.31em" x="-6" text-anchor="end" stroke="white">Corporation</text><circle fill="#555" r="2.5"/><text dy="0.31em" x="-6" text-anchor="end">Corporation</text></g><g transform="translate(572.4000000000001,-1208.75)"><text dy="0.31em" x="-6" text-anchor="end" stroke="white">Political Organisation</text><circle fill="#555" r="2.5"/><text dy="0.31em" x="-6" text-anchor="end">Political Organisation</text></g><g transform="translate(572.4000000000001,-1178.75)"><text dy="0.31em" x="6" text-anchor="start" stroke="white">Location Other</text><circle fill="#999" r="2.5"/><text dy="0.31em" x="6" text-anchor="start">Location Other</text></g><g transform="translate(572.4000000000001,-1168.75)"><text dy="0.31em" x="6" text-anchor="start" stroke="white">Fictional</text><circle fill="#999" r="2.5"/><text dy="0.31em" x="6" text-anchor="start">Fictional</text></g><g transform="translate(572.4000000000001,-1158.75)"><text dy="0.31em" x="6" text-anchor="start" stroke="white">Spa</text><circle fill="#999" r="2.5"/><text dy="0.31em" x="6" text-anchor="start">Spa</text></g><g transform="translate(572.4000000000001,-1148.75)"><text dy="0.31em" x="-6" text-anchor="end" stroke="white">GPE</text><circle fill="#555" r="2.5"/><text dy="0.31em" x="-6" text-anchor="end">GPE</text></g><g transform="translate(572.4000000000001,-1098.75)"><text dy="0.31em" x="-6" text-anchor="end" stroke="white">Region</text><circle fill="#555" r="2.5"/><text dy="0.31em" x="-6" text-anchor="end">Region</text></g><g transform="translate(572.4000000000001,-1038.75)"><text dy="0.31em" x="-6" text-anchor="end" stroke="white">Geological Region</text><circle fill="#555" r="2.5"/><text dy="0.31em" x="-6" text-anchor="end">Geological Region</text></g><g transform="translate(572.4000000000001,-973.75)"><text dy="0.31em" x="-6" text-anchor="end" stroke="white">Astral Body</text><circle fill="#555" r="2.5"/><text dy="0.31em" x="-6" text-anchor="end">Astral Body</text></g><g transform="translate(572.4000000000001,-923.75)"><text dy="0.31em" x="-6" text-anchor="end" stroke="white">Address</text><circle fill="#555" r="2.5"/><text dy="0.31em" x="-6" text-anchor="end">Address</text></g><g transform="translate(572.4000000000001,-903.75)"><text dy="0.31em" x="6" text-anchor="start" stroke="white">Facility Other</text><circle fill="#999" r="2.5"/><text dy="0.31em" x="6" text-anchor="start">Facility Other</text></g><g transform="translate(572.4000000000001,-893.75)"><text dy="0.31em" x="6" text-anchor="start" stroke="white">Facility Part</text><circle fill="#999" r="2.5"/><text dy="0.31em" x="6" text-anchor="start">Facility Part</text></g><g transform="translate(572.4000000000001,-883.75)"><text dy="0.31em" x="-6" text-anchor="end" stroke="white">Archaeological Place</text><circle fill="#555" r="2.5"/><text dy="0.31em" x="-6" text-anchor="end">Archaeological Place</text></g><g transform="translate(572.4000000000001,-783.75)"><text dy="0.31em" x="-6" text-anchor="end" stroke="white">GOE</text><circle fill="#555" r="2.5"/><text dy="0.31em" x="-6" text-anchor="end">GOE</text></g><g transform="translate(572.4000000000001,-663.75)"><text dy="0.31em" x="-6" text-anchor="end" stroke="white">Line</text><circle fill="#555" r="2.5"/><text dy="0.31em" x="-6" text-anchor="end">Line</text></g><g transform="translate(572.4000000000001,-628.75)"><text dy="0.31em" x="6" text-anchor="start" stroke="white">Product Other</text><circle fill="#999" r="2.5"/><text dy="0.31em" x="6" text-anchor="start">Product Other</text></g><g transform="translate(572.4000000000001,-618.75)"><text dy="0.31em" x="6" text-anchor="start" stroke="white">Material</text><circle fill="#999" r="2.5"/><text dy="0.31em" x="6" text-anchor="start">Material</text></g><g transform="translate(572.4000000000001,-608.75)"><text dy="0.31em" x="-6" text-anchor="end" stroke="white">Clothing</text><circle fill="#555" r="2.5"/><text dy="0.31em" x="-6" text-anchor="end">Clothing</text></g><g transform="translate(572.4000000000001,-588.75)"><text dy="0.31em" x="6" text-anchor="start" stroke="white">Money Form</text><circle fill="#999" r="2.5"/><text dy="0.31em" x="6" text-anchor="start">Money Form</text></g><g transform="translate(572.4000000000001,-568.75)"><text dy="0.31em" x="-6" text-anchor="end" stroke="white">Drug</text><circle fill="#555" r="2.5"/><text dy="0.31em" x="-6" text-anchor="end">Drug</text></g><g transform="translate(572.4000000000001,-528.75)"><text dy="0.31em" x="-6" text-anchor="end" stroke="white">Weapon</text><circle fill="#555" r="2.5"/><text dy="0.31em" x="-6" text-anchor="end">Weapon</text></g><g transform="translate(572.4000000000001,-518.75)"><text dy="0.31em" x="6" text-anchor="start" stroke="white">Stock</text><circle fill="#999" r="2.5"/><text dy="0.31em" x="6" text-anchor="start">Stock</text></g><g transform="translate(572.4000000000001,-508.75)"><text dy="0.31em" x="6" text-anchor="start" stroke="white">Award</text><circle fill="#999" r="2.5"/><text dy="0.31em" x="6" text-anchor="start">Award</text></g><g transform="translate(572.4000000000001,-498.75)"><text dy="0.31em" x="6" text-anchor="start" stroke="white">Decoration</text><circle fill="#999" r="2.5"/><text dy="0.31em" x="6" text-anchor="start">Decoration</text></g><g transform="translate(572.4000000000001,-488.75)"><text dy="0.31em" x="6" text-anchor="start" stroke="white">Offence</text><circle fill="#999" r="2.5"/><text dy="0.31em" x="6" text-anchor="start">Offence</text></g><g transform="translate(572.4000000000001,-478.75)"><text dy="0.31em" x="6" text-anchor="start" stroke="white">Service</text><circle fill="#999" r="2.5"/><text dy="0.31em" x="6" text-anchor="start">Service</text></g><g transform="translate(572.4000000000001,-468.75)"><text dy="0.31em" x="6" text-anchor="start" stroke="white">Class</text><circle fill="#999" r="2.5"/><text dy="0.31em" x="6" text-anchor="start">Class</text></g><g transform="translate(572.4000000000001,-458.75)"><text dy="0.31em" x="-6" text-anchor="end" stroke="white">Vehicule</text><circle fill="#555" r="2.5"/><text dy="0.31em" x="-6" text-anchor="end">Vehicule</text></g><g transform="translate(572.4000000000001,-398.75)"><text dy="0.31em" x="-6" text-anchor="end" stroke="white">Food</text><circle fill="#555" r="2.5"/><text dy="0.31em" x="-6" text-anchor="end">Food</text></g><g transform="translate(572.4000000000001,-338.75)"><text dy="0.31em" x="-6" text-anchor="end" stroke="white">Art</text><circle fill="#555" r="2.5"/><text dy="0.31em" x="-6" text-anchor="end">Art</text></g><g transform="translate(572.4000000000001,-278.75)"><text dy="0.31em" x="-6" text-anchor="end" stroke="white">Printing</text><circle fill="#555" r="2.5"/><text dy="0.31em" x="-6" text-anchor="end">Printing</text></g><g transform="translate(572.4000000000001,-208.75)"><text dy="0.31em" x="-6" text-anchor="end" stroke="white">Doctrine Method</text><circle fill="#555" r="2.5"/><text dy="0.31em" x="-6" text-anchor="end">Doctrine Method</text></g><g transform="translate(572.4000000000001,-138.75)"><text dy="0.31em" x="-6" text-anchor="end" stroke="white">Rule</text><circle fill="#555" r="2.5"/><text dy="0.31em" x="-6" text-anchor="end">Rule</text></g><g transform="translate(572.4000000000001,-103.75)"><text dy="0.31em" x="-6" text-anchor="end" stroke="white">Language</text><circle fill="#555" r="2.5"/><text dy="0.31em" x="-6" text-anchor="end">Language</text></g><g transform="translate(572.4000000000001,-73.75)"><text dy="0.31em" x="-6" text-anchor="end" stroke="white">Unit</text><circle fill="#555" r="2.5"/><text dy="0.31em" x="-6" text-anchor="end">Unit</text></g><g transform="translate(572.4000000000001,-53.75)"><text dy="0.31em" x="6" text-anchor="start" stroke="white">Personnal</text><circle fill="#999" r="2.5"/><text dy="0.31em" x="6" text-anchor="start">Personnal</text></g><g transform="translate(572.4000000000001,-43.75)"><text dy="0.31em" x="6" text-anchor="start" stroke="white">Event Other</text><circle fill="#999" r="2.5"/><text dy="0.31em" x="6" text-anchor="start">Event Other</text></g><g transform="translate(572.4000000000001,-33.75)"><text dy="0.31em" x="-6" text-anchor="end" stroke="white">Occasion</text><circle fill="#555" r="2.5"/><text dy="0.31em" x="-6" text-anchor="end">Occasion</text></g><g transform="translate(572.4000000000001,11.25)"><text dy="0.31em" x="-6" text-anchor="end" stroke="white">Historical Event</text><circle fill="#555" r="2.5"/><text dy="0.31em" x="-6" text-anchor="end">Historical Event</text></g><g transform="translate(572.4000000000001,51.25)"><text dy="0.31em" x="-6" text-anchor="end" stroke="white">Natural Phenomenon</text><circle fill="#555" r="2.5"/><text dy="0.31em" x="-6" text-anchor="end">Natural Phenomenon</text></g><g transform="translate(572.4000000000001,86.25)"><text dy="0.31em" x="6" text-anchor="start" stroke="white">Natural Object Other</text><circle fill="#999" r="2.5"/><text dy="0.31em" x="6" text-anchor="start">Natural Object Other</text></g><g transform="translate(572.4000000000001,96.25)"><text dy="0.31em" x="6" text-anchor="start" stroke="white">Element</text><circle fill="#999" r="2.5"/><text dy="0.31em" x="6" text-anchor="start">Element</text></g><g transform="translate(572.4000000000001,106.25)"><text dy="0.31em" x="6" text-anchor="start" stroke="white">Compound</text><circle fill="#999" r="2.5"/><text dy="0.31em" x="6" text-anchor="start">Compound</text></g><g transform="translate(572.4000000000001,116.25)"><text dy="0.31em" x="6" text-anchor="start" stroke="white">Mineral</text><circle fill="#999" r="2.5"/><text dy="0.31em" x="6" text-anchor="start">Mineral</text></g><g transform="translate(572.4000000000001,126.25)"><text dy="0.31em" x="-6" text-anchor="end" stroke="white">Living Thing</text><circle fill="#555" r="2.5"/><text dy="0.31em" x="-6" text-anchor="end">Living Thing</text></g><g transform="translate(572.4000000000001,201.25)"><text dy="0.31em" x="-6" text-anchor="end" stroke="white">Living Thing Part</text><circle fill="#555" r="2.5"/><text dy="0.31em" x="-6" text-anchor="end">Living Thing Part</text></g><g transform="translate(572.4000000000001,221.25)"><text dy="0.31em" x="6" text-anchor="start" stroke="white">Disease Other</text><circle fill="#999" r="2.5"/><text dy="0.31em" x="6" text-anchor="start">Disease Other</text></g><g transform="translate(572.4000000000001,231.25)"><text dy="0.31em" x="6" text-anchor="start" stroke="white">Animal Disease</text><circle fill="#999" r="2.5"/><text dy="0.31em" x="6" text-anchor="start">Animal Disease</text></g><g transform="translate(572.4000000000001,251.25)"><text dy="0.31em" x="6" text-anchor="start" stroke="white">Color Other</text><circle fill="#999" r="2.5"/><text dy="0.31em" x="6" text-anchor="start">Color Other</text></g><g transform="translate(572.4000000000001,261.25)"><text dy="0.31em" x="6" text-anchor="start" stroke="white">Nature Color</text><circle fill="#999" r="2.5"/><text dy="0.31em" x="6" text-anchor="start">Nature Color</text></g><g transform="translate(572.4000000000001,281.25)"><text dy="0.31em" x="6" text-anchor="start" stroke="white">Timex Other</text><circle fill="#999" r="2.5"/><text dy="0.31em" x="6" text-anchor="start">Timex Other</text></g><g transform="translate(572.4000000000001,291.25)"><text dy="0.31em" x="6" text-anchor="start" stroke="white">Time</text><circle fill="#999" r="2.5"/><text dy="0.31em" x="6" text-anchor="start">Time</text></g><g transform="translate(572.4000000000001,301.25)"><text dy="0.31em" x="6" text-anchor="start" stroke="white">Date</text><circle fill="#999" r="2.5"/><text dy="0.31em" x="6" text-anchor="start">Date</text></g><g transform="translate(572.4000000000001,311.25)"><text dy="0.31em" x="6" text-anchor="start" stroke="white">Day of Week</text><circle fill="#999" r="2.5"/><text dy="0.31em" x="6" text-anchor="start">Day of Week</text></g><g transform="translate(572.4000000000001,321.25)"><text dy="0.31em" x="6" text-anchor="start" stroke="white">Holiday</text><circle fill="#999" r="2.5"/><text dy="0.31em" x="6" text-anchor="start">Holiday</text></g><g transform="translate(572.4000000000001,331.25)"><text dy="0.31em" x="6" text-anchor="start" stroke="white">Era</text><circle fill="#999" r="2.5"/><text dy="0.31em" x="6" text-anchor="start">Era</text></g><g transform="translate(572.4000000000001,351.25)"><text dy="0.31em" x="6" text-anchor="start" stroke="white">Timex Relative Other</text><circle fill="#999" r="2.5"/><text dy="0.31em" x="6" text-anchor="start">Timex Relative Other</text></g><g transform="translate(572.4000000000001,361.25)"><text dy="0.31em" x="6" text-anchor="start" stroke="white">Time</text><circle fill="#999" r="2.5"/><text dy="0.31em" x="6" text-anchor="start">Time</text></g><g transform="translate(572.4000000000001,371.25)"><text dy="0.31em" x="6" text-anchor="start" stroke="white">Date</text><circle fill="#999" r="2.5"/><text dy="0.31em" x="6" text-anchor="start">Date</text></g><g transform="translate(572.4000000000001,381.25)"><text dy="0.31em" x="6" text-anchor="start" stroke="white">Holiday</text><circle fill="#999" r="2.5"/><text dy="0.31em" x="6" text-anchor="start">Holiday</text></g><g transform="translate(572.4000000000001,391.25)"><text dy="0.31em" x="6" text-anchor="start" stroke="white">Day of the Week</text><circle fill="#999" r="2.5"/><text dy="0.31em" x="6" text-anchor="start">Day of the Week</text></g><g transform="translate(572.4000000000001,411.25)"><text dy="0.31em" x="6" text-anchor="start" stroke="white">Periodx Other</text><circle fill="#999" r="2.5"/><text dy="0.31em" x="6" text-anchor="start">Periodx Other</text></g><g transform="translate(572.4000000000001,421.25)"><text dy="0.31em" x="6" text-anchor="start" stroke="white">Period Time</text><circle fill="#999" r="2.5"/><text dy="0.31em" x="6" text-anchor="start">Period Time</text></g><g transform="translate(572.4000000000001,431.25)"><text dy="0.31em" x="6" text-anchor="start" stroke="white">Period Day</text><circle fill="#999" r="2.5"/><text dy="0.31em" x="6" text-anchor="start">Period Day</text></g><g transform="translate(572.4000000000001,441.25)"><text dy="0.31em" x="6" text-anchor="start" stroke="white">Period Week</text><circle fill="#999" r="2.5"/><text dy="0.31em" x="6" text-anchor="start">Period Week</text></g><g transform="translate(572.4000000000001,451.25)"><text dy="0.31em" x="6" text-anchor="start" stroke="white">Period Month</text><circle fill="#999" r="2.5"/><text dy="0.31em" x="6" text-anchor="start">Period Month</text></g><g transform="translate(572.4000000000001,461.25)"><text dy="0.31em" x="6" text-anchor="start" stroke="white">Period Year</text><circle fill="#999" r="2.5"/><text dy="0.31em" x="6" text-anchor="start">Period Year</text></g><g transform="translate(572.4000000000001,546.25)"><text dy="0.31em" x="6" text-anchor="start" stroke="white">Measurement Other</text><circle fill="#999" r="2.5"/><text dy="0.31em" x="6" text-anchor="start">Measurement Other</text></g><g transform="translate(572.4000000000001,556.25)"><text dy="0.31em" x="6" text-anchor="start" stroke="white">Physical Extent</text><circle fill="#999" r="2.5"/><text dy="0.31em" x="6" text-anchor="start">Physical Extent</text></g><g transform="translate(572.4000000000001,566.25)"><text dy="0.31em" x="6" text-anchor="start" stroke="white">Space</text><circle fill="#999" r="2.5"/><text dy="0.31em" x="6" text-anchor="start">Space</text></g><g transform="translate(572.4000000000001,576.25)"><text dy="0.31em" x="6" text-anchor="start" stroke="white">Volume</text><circle fill="#999" r="2.5"/><text dy="0.31em" x="6" text-anchor="start">Volume</text></g><g transform="translate(572.4000000000001,586.25)"><text dy="0.31em" x="6" text-anchor="start" stroke="white">Weight</text><circle fill="#999" r="2.5"/><text dy="0.31em" x="6" text-anchor="start">Weight</text></g><g transform="translate(572.4000000000001,596.25)"><text dy="0.31em" x="6" text-anchor="start" stroke="white">Speed</text><circle fill="#999" r="2.5"/><text dy="0.31em" x="6" text-anchor="start">Speed</text></g><g transform="translate(572.4000000000001,606.25)"><text dy="0.31em" x="6" text-anchor="start" stroke="white">Intensity</text><circle fill="#999" r="2.5"/><text dy="0.31em" x="6" text-anchor="start">Intensity</text></g><g transform="translate(572.4000000000001,616.25)"><text dy="0.31em" x="6" text-anchor="start" stroke="white">Temperature</text><circle fill="#999" r="2.5"/><text dy="0.31em" x="6" text-anchor="start">Temperature</text></g><g transform="translate(572.4000000000001,626.25)"><text dy="0.31em" x="6" text-anchor="start" stroke="white">Calorie</text><circle fill="#999" r="2.5"/><text dy="0.31em" x="6" text-anchor="start">Calorie</text></g><g transform="translate(572.4000000000001,636.25)"><text dy="0.31em" x="6" text-anchor="start" stroke="white">Seismic Intensity</text><circle fill="#999" r="2.5"/><text dy="0.31em" x="6" text-anchor="start">Seismic Intensity</text></g><g transform="translate(572.4000000000001,646.25)"><text dy="0.31em" x="6" text-anchor="start" stroke="white">Seismic Magnitude</text><circle fill="#999" r="2.5"/><text dy="0.31em" x="6" text-anchor="start">Seismic Magnitude</text></g><g transform="translate(572.4000000000001,666.25)"><text dy="0.31em" x="6" text-anchor="start" stroke="white">Countx Other</text><circle fill="#999" r="2.5"/><text dy="0.31em" x="6" text-anchor="start">Countx Other</text></g><g transform="translate(572.4000000000001,676.25)"><text dy="0.31em" x="6" text-anchor="start" stroke="white">N Person</text><circle fill="#999" r="2.5"/><text dy="0.31em" x="6" text-anchor="start">N Person</text></g><g transform="translate(572.4000000000001,686.25)"><text dy="0.31em" x="6" text-anchor="start" stroke="white">N Organisation</text><circle fill="#999" r="2.5"/><text dy="0.31em" x="6" text-anchor="start">N Organisation</text></g><g transform="translate(572.4000000000001,696.25)"><text dy="0.31em" x="-6" text-anchor="end" stroke="white">N Location</text><circle fill="#555" r="2.5"/><text dy="0.31em" x="-6" text-anchor="end">N Location</text></g><g transform="translate(572.4000000000001,706.25)"><text dy="0.31em" x="6" text-anchor="start" stroke="white">N Facility</text><circle fill="#999" r="2.5"/><text dy="0.31em" x="6" text-anchor="start">N Facility</text></g><g transform="translate(572.4000000000001,716.25)"><text dy="0.31em" x="6" text-anchor="start" stroke="white">N Product</text><circle fill="#999" r="2.5"/><text dy="0.31em" x="6" text-anchor="start">N Product</text></g><g transform="translate(572.4000000000001,726.25)"><text dy="0.31em" x="6" text-anchor="start" stroke="white">N Event</text><circle fill="#999" r="2.5"/><text dy="0.31em" x="6" text-anchor="start">N Event</text></g><g transform="translate(572.4000000000001,736.25)"><text dy="0.31em" x="-6" text-anchor="end" stroke="white">N Natural Object</text><circle fill="#555" r="2.5"/><text dy="0.31em" x="-6" text-anchor="end">N Natural Object</text></g><g transform="translate(763.2,-1338.75)"><text dy="0.31em" x="6" text-anchor="start" stroke="white">Ethnic Group Other</text><circle fill="#999" r="2.5"/><text dy="0.31em" x="6" text-anchor="start">Ethnic Group Other</text></g><g transform="translate(763.2,-1328.75)"><text dy="0.31em" x="6" text-anchor="start" stroke="white">Nationality</text><circle fill="#999" r="2.5"/><text dy="0.31em" x="6" text-anchor="start">Nationality</text></g><g transform="translate(763.2,-1308.75)"><text dy="0.31em" x="6" text-anchor="start" stroke="white">Sports Organisation Other</text><circle fill="#999" r="2.5"/><text dy="0.31em" x="6" text-anchor="start">Sports Organisation Other</text></g><g transform="translate(763.2,-1298.75)"><text dy="0.31em" x="6" text-anchor="start" stroke="white">Pro Sports Organisation</text><circle fill="#999" r="2.5"/><text dy="0.31em" x="6" text-anchor="start">Pro Sports Organisation</text></g><g transform="translate(763.2,-1288.75)"><text dy="0.31em" x="6" text-anchor="start" stroke="white">Sports League</text><circle fill="#999" r="2.5"/><text dy="0.31em" x="6" text-anchor="start">Sports League</text></g><g transform="translate(763.2,-1268.75)"><text dy="0.31em" x="6" text-anchor="start" stroke="white">Corporation Other</text><circle fill="#999" r="2.5"/><text dy="0.31em" x="6" text-anchor="start">Corporation Other</text></g><g transform="translate(763.2,-1258.75)"><text dy="0.31em" x="6" text-anchor="start" stroke="white">Company</text><circle fill="#999" r="2.5"/><text dy="0.31em" x="6" text-anchor="start">Company</text></g><g transform="translate(763.2,-1248.75)"><text dy="0.31em" x="6" text-anchor="start" stroke="white">Company Group</text><circle fill="#999" r="2.5"/><text dy="0.31em" x="6" text-anchor="start">Company Group</text></g><g transform="translate(763.2,-1228.75)"><text dy="0.31em" x="6" text-anchor="start" stroke="white">Political Organisation Other</text><circle fill="#999" r="2.5"/><text dy="0.31em" x="6" text-anchor="start">Political Organisation Other</text></g><g transform="translate(763.2,-1218.75)"><text dy="0.31em" x="6" text-anchor="start" stroke="white">Government</text><circle fill="#999" r="2.5"/><text dy="0.31em" x="6" text-anchor="start">Government</text></g><g transform="translate(763.2,-1208.75)"><text dy="0.31em" x="6" text-anchor="start" stroke="white">Political Party</text><circle fill="#999" r="2.5"/><text dy="0.31em" x="6" text-anchor="start">Political Party</text></g><g transform="translate(763.2,-1198.75)"><text dy="0.31em" x="6" text-anchor="start" stroke="white">Cabinet</text><circle fill="#999" r="2.5"/><text dy="0.31em" x="6" text-anchor="start">Cabinet</text></g><g transform="translate(763.2,-1188.75)"><text dy="0.31em" x="6" text-anchor="start" stroke="white">Military</text><circle fill="#999" r="2.5"/><text dy="0.31em" x="6" text-anchor="start">Military</text></g><g transform="translate(763.2,-1168.75)"><text dy="0.31em" x="6" text-anchor="start" stroke="white">GPE Other</text><circle fill="#999" r="2.5"/><text dy="0.31em" x="6" text-anchor="start">GPE Other</text></g><g transform="translate(763.2,-1158.75)"><text dy="0.31em" x="6" text-anchor="start" stroke="white">City</text><circle fill="#999" r="2.5"/><text dy="0.31em" x="6" text-anchor="start">City</text></g><g transform="translate(763.2,-1148.75)"><text dy="0.31em" x="6" text-anchor="start" stroke="white">County</text><circle fill="#999" r="2.5"/><text dy="0.31em" x="6" text-anchor="start">County</text></g><g transform="translate(763.2,-1138.75)"><text dy="0.31em" x="6" text-anchor="start" stroke="white">Province</text><circle fill="#999" r="2.5"/><text dy="0.31em" x="6" text-anchor="start">Province</text></g><g transform="translate(763.2,-1128.75)"><text dy="0.31em" x="6" text-anchor="start" stroke="white">Country</text><circle fill="#999" r="2.5"/><text dy="0.31em" x="6" text-anchor="start">Country</text></g><g transform="translate(763.2,-1108.75)"><text dy="0.31em" x="6" text-anchor="start" stroke="white">Region Other</text><circle fill="#999" r="2.5"/><text dy="0.31em" x="6" text-anchor="start">Region Other</text></g><g transform="translate(763.2,-1098.75)"><text dy="0.31em" x="6" text-anchor="start" stroke="white">Continental Region</text><circle fill="#999" r="2.5"/><text dy="0.31em" x="6" text-anchor="start">Continental Region</text></g><g transform="translate(763.2,-1088.75)"><text dy="0.31em" x="6" text-anchor="start" stroke="white">Domestic Region</text><circle fill="#999" r="2.5"/><text dy="0.31em" x="6" text-anchor="start">Domestic Region</text></g><g transform="translate(763.2,-1068.75)"><text dy="0.31em" x="6" text-anchor="start" stroke="white">Geological Region Other</text><circle fill="#999" r="2.5"/><text dy="0.31em" x="6" text-anchor="start">Geological Region Other</text></g><g transform="translate(763.2,-1058.75)"><text dy="0.31em" x="6" text-anchor="start" stroke="white">Mountain</text><circle fill="#999" r="2.5"/><text dy="0.31em" x="6" text-anchor="start">Mountain</text></g><g transform="translate(763.2,-1048.75)"><text dy="0.31em" x="6" text-anchor="start" stroke="white">Island</text><circle fill="#999" r="2.5"/><text dy="0.31em" x="6" text-anchor="start">Island</text></g><g transform="translate(763.2,-1038.75)"><text dy="0.31em" x="6" text-anchor="start" stroke="white">River</text><circle fill="#999" r="2.5"/><text dy="0.31em" x="6" text-anchor="start">River</text></g><g transform="translate(763.2,-1028.75)"><text dy="0.31em" x="6" text-anchor="start" stroke="white">Lake</text><circle fill="#999" r="2.5"/><text dy="0.31em" x="6" text-anchor="start">Lake</text></g><g transform="translate(763.2,-1018.75)"><text dy="0.31em" x="6" text-anchor="start" stroke="white">Sea</text><circle fill="#999" r="2.5"/><text dy="0.31em" x="6" text-anchor="start">Sea</text></g><g transform="translate(763.2,-1008.75)"><text dy="0.31em" x="6" text-anchor="start" stroke="white">Bay</text><circle fill="#999" r="2.5"/><text dy="0.31em" x="6" text-anchor="start">Bay</text></g><g transform="translate(763.2,-988.75)"><text dy="0.31em" x="6" text-anchor="start" stroke="white">Astral Body Other</text><circle fill="#999" r="2.5"/><text dy="0.31em" x="6" text-anchor="start">Astral Body Other</text></g><g transform="translate(763.2,-978.75)"><text dy="0.31em" x="6" text-anchor="start" stroke="white">Star</text><circle fill="#999" r="2.5"/><text dy="0.31em" x="6" text-anchor="start">Star</text></g><g transform="translate(763.2,-968.75)"><text dy="0.31em" x="6" text-anchor="start" stroke="white">Planet</text><circle fill="#999" r="2.5"/><text dy="0.31em" x="6" text-anchor="start">Planet</text></g><g transform="translate(763.2,-958.75)"><text dy="0.31em" x="6" text-anchor="start" stroke="white">Constellation</text><circle fill="#999" r="2.5"/><text dy="0.31em" x="6" text-anchor="start">Constellation</text></g><g transform="translate(763.2,-938.75)"><text dy="0.31em" x="6" text-anchor="start" stroke="white">Address Other</text><circle fill="#999" r="2.5"/><text dy="0.31em" x="6" text-anchor="start">Address Other</text></g><g transform="translate(763.2,-928.75)"><text dy="0.31em" x="6" text-anchor="start" stroke="white">Postal Address</text><circle fill="#999" r="2.5"/><text dy="0.31em" x="6" text-anchor="start">Postal Address</text></g><g transform="translate(763.2,-918.75)"><text dy="0.31em" x="6" text-anchor="start" stroke="white">Email</text><circle fill="#999" r="2.5"/><text dy="0.31em" x="6" text-anchor="start">Email</text></g><g transform="translate(763.2,-908.75)"><text dy="0.31em" x="6" text-anchor="start" stroke="white">URL</text><circle fill="#999" r="2.5"/><text dy="0.31em" x="6" text-anchor="start">URL</text></g><g transform="translate(763.2,-888.75)"><text dy="0.31em" x="6" text-anchor="start" stroke="white">Archaeological Place Other</text><circle fill="#999" r="2.5"/><text dy="0.31em" x="6" text-anchor="start">Archaeological Place Other</text></g><g transform="translate(763.2,-878.75)"><text dy="0.31em" x="6" text-anchor="start" stroke="white">Tumulus</text><circle fill="#999" r="2.5"/><text dy="0.31em" x="6" text-anchor="start">Tumulus</text></g><g transform="translate(763.2,-858.75)"><text dy="0.31em" x="6" text-anchor="start" stroke="white">GOE Other</text><circle fill="#999" r="2.5"/><text dy="0.31em" x="6" text-anchor="start">GOE Other</text></g><g transform="translate(763.2,-848.75)"><text dy="0.31em" x="6" text-anchor="start" stroke="white">Public Institution</text><circle fill="#999" r="2.5"/><text dy="0.31em" x="6" text-anchor="start">Public Institution</text></g><g transform="translate(763.2,-838.75)"><text dy="0.31em" x="6" text-anchor="start" stroke="white">School</text><circle fill="#999" r="2.5"/><text dy="0.31em" x="6" text-anchor="start">School</text></g><g transform="translate(763.2,-828.75)"><text dy="0.31em" x="6" text-anchor="start" stroke="white">Research Institue</text><circle fill="#999" r="2.5"/><text dy="0.31em" x="6" text-anchor="start">Research Institue</text></g><g transform="translate(763.2,-818.75)"><text dy="0.31em" x="6" text-anchor="start" stroke="white">Market</text><circle fill="#999" r="2.5"/><text dy="0.31em" x="6" text-anchor="start">Market</text></g><g transform="translate(763.2,-808.75)"><text dy="0.31em" x="6" text-anchor="start" stroke="white">Park</text><circle fill="#999" r="2.5"/><text dy="0.31em" x="6" text-anchor="start">Park</text></g><g transform="translate(763.2,-798.75)"><text dy="0.31em" x="6" text-anchor="start" stroke="white">Sports Facility</text><circle fill="#999" r="2.5"/><text dy="0.31em" x="6" text-anchor="start">Sports Facility</text></g><g transform="translate(763.2,-788.75)"><text dy="0.31em" x="6" text-anchor="start" stroke="white">Museum</text><circle fill="#999" r="2.5"/><text dy="0.31em" x="6" text-anchor="start">Museum</text></g><g transform="translate(763.2,-778.75)"><text dy="0.31em" x="6" text-anchor="start" stroke="white">Zoo</text><circle fill="#999" r="2.5"/><text dy="0.31em" x="6" text-anchor="start">Zoo</text></g><g transform="translate(763.2,-768.75)"><text dy="0.31em" x="6" text-anchor="start" stroke="white">Amusement Park</text><circle fill="#999" r="2.5"/><text dy="0.31em" x="6" text-anchor="start">Amusement Park</text></g><g transform="translate(763.2,-758.75)"><text dy="0.31em" x="6" text-anchor="start" stroke="white">Theater</text><circle fill="#999" r="2.5"/><text dy="0.31em" x="6" text-anchor="start">Theater</text></g><g transform="translate(763.2,-748.75)"><text dy="0.31em" x="6" text-anchor="start" stroke="white">Worship Place</text><circle fill="#999" r="2.5"/><text dy="0.31em" x="6" text-anchor="start">Worship Place</text></g><g transform="translate(763.2,-738.75)"><text dy="0.31em" x="6" text-anchor="start" stroke="white">Car Stop</text><circle fill="#999" r="2.5"/><text dy="0.31em" x="6" text-anchor="start">Car Stop</text></g><g transform="translate(763.2,-728.75)"><text dy="0.31em" x="6" text-anchor="start" stroke="white">Station</text><circle fill="#999" r="2.5"/><text dy="0.31em" x="6" text-anchor="start">Station</text></g><g transform="translate(763.2,-718.75)"><text dy="0.31em" x="6" text-anchor="start" stroke="white">Airport</text><circle fill="#999" r="2.5"/><text dy="0.31em" x="6" text-anchor="start">Airport</text></g><g transform="translate(763.2,-708.75)"><text dy="0.31em" x="6" text-anchor="start" stroke="white">Port</text><circle fill="#999" r="2.5"/><text dy="0.31em" x="6" text-anchor="start">Port</text></g><g transform="translate(763.2,-688.75)"><text dy="0.31em" x="6" text-anchor="start" stroke="white">Line Other</text><circle fill="#999" r="2.5"/><text dy="0.31em" x="6" text-anchor="start">Line Other</text></g><g transform="translate(763.2,-678.75)"><text dy="0.31em" x="6" text-anchor="start" stroke="white">Railroad</text><circle fill="#999" r="2.5"/><text dy="0.31em" x="6" text-anchor="start">Railroad</text></g><g transform="translate(763.2,-668.75)"><text dy="0.31em" x="6" text-anchor="start" stroke="white">Canal</text><circle fill="#999" r="2.5"/><text dy="0.31em" x="6" text-anchor="start">Canal</text></g><g transform="translate(763.2,-658.75)"><text dy="0.31em" x="6" text-anchor="start" stroke="white">Water Route</text><circle fill="#999" r="2.5"/><text dy="0.31em" x="6" text-anchor="start">Water Route</text></g><g transform="translate(763.2,-648.75)"><text dy="0.31em" x="6" text-anchor="start" stroke="white">Tunnel</text><circle fill="#999" r="2.5"/><text dy="0.31em" x="6" text-anchor="start">Tunnel</text></g><g transform="translate(763.2,-638.75)"><text dy="0.31em" x="6" text-anchor="start" stroke="white">Bridge</text><circle fill="#999" r="2.5"/><text dy="0.31em" x="6" text-anchor="start">Bridge</text></g><g transform="translate(763.2,-618.75)"><text dy="0.31em" x="6" text-anchor="start" stroke="white">Object</text><circle fill="#999" r="2.5"/><text dy="0.31em" x="6" text-anchor="start">Object</text></g><g transform="translate(763.2,-608.75)"><text dy="0.31em" x="6" text-anchor="start" stroke="white">Brand</text><circle fill="#999" r="2.5"/><text dy="0.31em" x="6" text-anchor="start">Brand</text></g><g transform="translate(763.2,-598.75)"><text dy="0.31em" x="6" text-anchor="start" stroke="white">Other</text><circle fill="#999" r="2.5"/><text dy="0.31em" x="6" text-anchor="start">Other</text></g><g transform="translate(763.2,-578.75)"><text dy="0.31em" x="6" text-anchor="start" stroke="white">Substance</text><circle fill="#999" r="2.5"/><text dy="0.31em" x="6" text-anchor="start">Substance</text></g><g transform="translate(763.2,-568.75)"><text dy="0.31em" x="6" text-anchor="start" stroke="white">Brand</text><circle fill="#999" r="2.5"/><text dy="0.31em" x="6" text-anchor="start">Brand</text></g><g transform="translate(763.2,-558.75)"><text dy="0.31em" x="6" text-anchor="start" stroke="white">Other</text><circle fill="#999" r="2.5"/><text dy="0.31em" x="6" text-anchor="start">Other</text></g><g transform="translate(763.2,-538.75)"><text dy="0.31em" x="6" text-anchor="start" stroke="white">Object</text><circle fill="#999" r="2.5"/><text dy="0.31em" x="6" text-anchor="start">Object</text></g><g transform="translate(763.2,-528.75)"><text dy="0.31em" x="6" text-anchor="start" stroke="white">Brand</text><circle fill="#999" r="2.5"/><text dy="0.31em" x="6" text-anchor="start">Brand</text></g><g transform="translate(763.2,-518.75)"><text dy="0.31em" x="6" text-anchor="start" stroke="white">Other</text><circle fill="#999" r="2.5"/><text dy="0.31em" x="6" text-anchor="start">Other</text></g><g transform="translate(763.2,-488.75)"><text dy="0.31em" x="6" text-anchor="start" stroke="white">Brand</text><circle fill="#999" r="2.5"/><text dy="0.31em" x="6" text-anchor="start">Brand</text></g><g transform="translate(763.2,-478.75)"><text dy="0.31em" x="6" text-anchor="start" stroke="white">Vehicule Other</text><circle fill="#999" r="2.5"/><text dy="0.31em" x="6" text-anchor="start">Vehicule Other</text></g><g transform="translate(763.2,-468.75)"><text dy="0.31em" x="6" text-anchor="start" stroke="white">Car</text><circle fill="#999" r="2.5"/><text dy="0.31em" x="6" text-anchor="start">Car</text></g><g transform="translate(763.2,-458.75)"><text dy="0.31em" x="6" text-anchor="start" stroke="white">Train</text><circle fill="#999" r="2.5"/><text dy="0.31em" x="6" text-anchor="start">Train</text></g><g transform="translate(763.2,-448.75)"><text dy="0.31em" x="6" text-anchor="start" stroke="white">Aircraft</text><circle fill="#999" r="2.5"/><text dy="0.31em" x="6" text-anchor="start">Aircraft</text></g><g transform="translate(763.2,-438.75)"><text dy="0.31em" x="6" text-anchor="start" stroke="white">Spaceship</text><circle fill="#999" r="2.5"/><text dy="0.31em" x="6" text-anchor="start">Spaceship</text></g><g transform="translate(763.2,-428.75)"><text dy="0.31em" x="6" text-anchor="start" stroke="white">Ship</text><circle fill="#999" r="2.5"/><text dy="0.31em" x="6" text-anchor="start">Ship</text></g><g transform="translate(763.2,-408.75)"><text dy="0.31em" x="6" text-anchor="start" stroke="white">Brand</text><circle fill="#999" r="2.5"/><text dy="0.31em" x="6" text-anchor="start">Brand</text></g><g transform="translate(763.2,-398.75)"><text dy="0.31em" x="6" text-anchor="start" stroke="white">Food Other</text><circle fill="#999" r="2.5"/><text dy="0.31em" x="6" text-anchor="start">Food Other</text></g><g transform="translate(763.2,-388.75)"><text dy="0.31em" x="6" text-anchor="start" stroke="white">Dish</text><circle fill="#999" r="2.5"/><text dy="0.31em" x="6" text-anchor="start">Dish</text></g><g transform="translate(763.2,-368.75)"><text dy="0.31em" x="6" text-anchor="start" stroke="white">Art Other</text><circle fill="#999" r="2.5"/><text dy="0.31em" x="6" text-anchor="start">Art Other</text></g><g transform="translate(763.2,-358.75)"><text dy="0.31em" x="6" text-anchor="start" stroke="white">Picture</text><circle fill="#999" r="2.5"/><text dy="0.31em" x="6" text-anchor="start">Picture</text></g><g transform="translate(763.2,-348.75)"><text dy="0.31em" x="6" text-anchor="start" stroke="white">Broadcast Program</text><circle fill="#999" r="2.5"/><text dy="0.31em" x="6" text-anchor="start">Broadcast Program</text></g><g transform="translate(763.2,-338.75)"><text dy="0.31em" x="6" text-anchor="start" stroke="white">Movie</text><circle fill="#999" r="2.5"/><text dy="0.31em" x="6" text-anchor="start">Movie</text></g><g transform="translate(763.2,-328.75)"><text dy="0.31em" x="6" text-anchor="start" stroke="white">Show</text><circle fill="#999" r="2.5"/><text dy="0.31em" x="6" text-anchor="start">Show</text></g><g transform="translate(763.2,-318.75)"><text dy="0.31em" x="6" text-anchor="start" stroke="white">Music</text><circle fill="#999" r="2.5"/><text dy="0.31em" x="6" text-anchor="start">Music</text></g><g transform="translate(763.2,-308.75)"><text dy="0.31em" x="6" text-anchor="start" stroke="white">Book</text><circle fill="#999" r="2.5"/><text dy="0.31em" x="6" text-anchor="start">Book</text></g><g transform="translate(763.2,-288.75)"><text dy="0.31em" x="6" text-anchor="start" stroke="white">Printing Other</text><circle fill="#999" r="2.5"/><text dy="0.31em" x="6" text-anchor="start">Printing Other</text></g><g transform="translate(763.2,-278.75)"><text dy="0.31em" x="6" text-anchor="start" stroke="white">Newspaper</text><circle fill="#999" r="2.5"/><text dy="0.31em" x="6" text-anchor="start">Newspaper</text></g><g transform="translate(763.2,-268.75)"><text dy="0.31em" x="6" text-anchor="start" stroke="white">Magazine</text><circle fill="#999" r="2.5"/><text dy="0.31em" x="6" text-anchor="start">Magazine</text></g><g transform="translate(763.2,-248.75)"><text dy="0.31em" x="6" text-anchor="start" stroke="white">Doctrine Method Other</text><circle fill="#999" r="2.5"/><text dy="0.31em" x="6" text-anchor="start">Doctrine Method Other</text></g><g transform="translate(763.2,-238.75)"><text dy="0.31em" x="6" text-anchor="start" stroke="white">Culture</text><circle fill="#999" r="2.5"/><text dy="0.31em" x="6" text-anchor="start">Culture</text></g><g transform="translate(763.2,-228.75)"><text dy="0.31em" x="6" text-anchor="start" stroke="white">Religion</text><circle fill="#999" r="2.5"/><text dy="0.31em" x="6" text-anchor="start">Religion</text></g><g transform="translate(763.2,-218.75)"><text dy="0.31em" x="6" text-anchor="start" stroke="white">Academic</text><circle fill="#999" r="2.5"/><text dy="0.31em" x="6" text-anchor="start">Academic</text></g><g transform="translate(763.2,-208.75)"><text dy="0.31em" x="6" text-anchor="start" stroke="white">Sport</text><circle fill="#999" r="2.5"/><text dy="0.31em" x="6" text-anchor="start">Sport</text></g><g transform="translate(763.2,-198.75)"><text dy="0.31em" x="6" text-anchor="start" stroke="white">Style</text><circle fill="#999" r="2.5"/><text dy="0.31em" x="6" text-anchor="start">Style</text></g><g transform="translate(763.2,-188.75)"><text dy="0.31em" x="6" text-anchor="start" stroke="white">Movement</text><circle fill="#999" r="2.5"/><text dy="0.31em" x="6" text-anchor="start">Movement</text></g><g transform="translate(763.2,-178.75)"><text dy="0.31em" x="6" text-anchor="start" stroke="white">Theory</text><circle fill="#999" r="2.5"/><text dy="0.31em" x="6" text-anchor="start">Theory</text></g><g transform="translate(763.2,-168.75)"><text dy="0.31em" x="6" text-anchor="start" stroke="white">Plan</text><circle fill="#999" r="2.5"/><text dy="0.31em" x="6" text-anchor="start">Plan</text></g><g transform="translate(763.2,-148.75)"><text dy="0.31em" x="6" text-anchor="start" stroke="white">Rule Other</text><circle fill="#999" r="2.5"/><text dy="0.31em" x="6" text-anchor="start">Rule Other</text></g><g transform="translate(763.2,-138.75)"><text dy="0.31em" x="6" text-anchor="start" stroke="white">Treaty</text><circle fill="#999" r="2.5"/><text dy="0.31em" x="6" text-anchor="start">Treaty</text></g><g transform="translate(763.2,-128.75)"><text dy="0.31em" x="6" text-anchor="start" stroke="white">Law</text><circle fill="#999" r="2.5"/><text dy="0.31em" x="6" text-anchor="start">Law</text></g><g transform="translate(763.2,-108.75)"><text dy="0.31em" x="6" text-anchor="start" stroke="white">Language Other</text><circle fill="#999" r="2.5"/><text dy="0.31em" x="6" text-anchor="start">Language Other</text></g><g transform="translate(763.2,-98.75)"><text dy="0.31em" x="6" text-anchor="start" stroke="white">National Language</text><circle fill="#999" r="2.5"/><text dy="0.31em" x="6" text-anchor="start">National Language</text></g><g transform="translate(763.2,-78.75)"><text dy="0.31em" x="6" text-anchor="start" stroke="white">Unit Other</text><circle fill="#999" r="2.5"/><text dy="0.31em" x="6" text-anchor="start">Unit Other</text></g><g transform="translate(763.2,-68.75)"><text dy="0.31em" x="6" text-anchor="start" stroke="white">Currency</text><circle fill="#999" r="2.5"/><text dy="0.31em" x="6" text-anchor="start">Currency</text></g><g transform="translate(763.2,-48.75)"><text dy="0.31em" x="6" text-anchor="start" stroke="white">Occasion Other</text><circle fill="#999" r="2.5"/><text dy="0.31em" x="6" text-anchor="start">Occasion Other</text></g><g transform="translate(763.2,-38.75)"><text dy="0.31em" x="6" text-anchor="start" stroke="white">Religious Festival</text><circle fill="#999" r="2.5"/><text dy="0.31em" x="6" text-anchor="start">Religious Festival</text></g><g transform="translate(763.2,-28.75)"><text dy="0.31em" x="6" text-anchor="start" stroke="white">Game</text><circle fill="#999" r="2.5"/><text dy="0.31em" x="6" text-anchor="start">Game</text></g><g transform="translate(763.2,-18.75)"><text dy="0.31em" x="6" text-anchor="start" stroke="white">Conference</text><circle fill="#999" r="2.5"/><text dy="0.31em" x="6" text-anchor="start">Conference</text></g><g transform="translate(763.2,1.25)"><text dy="0.31em" x="6" text-anchor="start" stroke="white">Other</text><circle fill="#999" r="2.5"/><text dy="0.31em" x="6" text-anchor="start">Other</text></g><g transform="translate(763.2,11.25)"><text dy="0.31em" x="6" text-anchor="start" stroke="white">Incident</text><circle fill="#999" r="2.5"/><text dy="0.31em" x="6" text-anchor="start">Incident</text></g><g transform="translate(763.2,21.25)"><text dy="0.31em" x="6" text-anchor="start" stroke="white">War</text><circle fill="#999" r="2.5"/><text dy="0.31em" x="6" text-anchor="start">War</text></g><g transform="translate(763.2,41.25)"><text dy="0.31em" x="6" text-anchor="start" stroke="white">Natural Phenomenon Other</text><circle fill="#999" r="2.5"/><text dy="0.31em" x="6" text-anchor="start">Natural Phenomenon Other</text></g><g transform="translate(763.2,51.25)"><text dy="0.31em" x="6" text-anchor="start" stroke="white">Natural Disaster</text><circle fill="#999" r="2.5"/><text dy="0.31em" x="6" text-anchor="start">Natural Disaster</text></g><g transform="translate(763.2,61.25)"><text dy="0.31em" x="6" text-anchor="start" stroke="white">Earthquake</text><circle fill="#999" r="2.5"/><text dy="0.31em" x="6" text-anchor="start">Earthquake</text></g><g transform="translate(763.2,81.25)"><text dy="0.31em" x="6" text-anchor="start" stroke="white">Living Thing Other</text><circle fill="#999" r="2.5"/><text dy="0.31em" x="6" text-anchor="start">Living Thing Other</text></g><g transform="translate(763.2,91.25)"><text dy="0.31em" x="6" text-anchor="start" stroke="white">Fungus</text><circle fill="#999" r="2.5"/><text dy="0.31em" x="6" text-anchor="start">Fungus</text></g><g transform="translate(763.2,101.25)"><text dy="0.31em" x="6" text-anchor="start" stroke="white">Mollusc Arthropod</text><circle fill="#999" r="2.5"/><text dy="0.31em" x="6" text-anchor="start">Mollusc Arthropod</text></g><g transform="translate(763.2,111.25)"><text dy="0.31em" x="6" text-anchor="start" stroke="white">Insect</text><circle fill="#999" r="2.5"/><text dy="0.31em" x="6" text-anchor="start">Insect</text></g><g transform="translate(763.2,121.25)"><text dy="0.31em" x="6" text-anchor="start" stroke="white">Fish</text><circle fill="#999" r="2.5"/><text dy="0.31em" x="6" text-anchor="start">Fish</text></g><g transform="translate(763.2,131.25)"><text dy="0.31em" x="6" text-anchor="start" stroke="white">Amphibia</text><circle fill="#999" r="2.5"/><text dy="0.31em" x="6" text-anchor="start">Amphibia</text></g><g transform="translate(763.2,141.25)"><text dy="0.31em" x="6" text-anchor="start" stroke="white">Reptile</text><circle fill="#999" r="2.5"/><text dy="0.31em" x="6" text-anchor="start">Reptile</text></g><g transform="translate(763.2,151.25)"><text dy="0.31em" x="6" text-anchor="start" stroke="white">Bird</text><circle fill="#999" r="2.5"/><text dy="0.31em" x="6" text-anchor="start">Bird</text></g><g transform="translate(763.2,161.25)"><text dy="0.31em" x="6" text-anchor="start" stroke="white">Mammal</text><circle fill="#999" r="2.5"/><text dy="0.31em" x="6" text-anchor="start">Mammal</text></g><g transform="translate(763.2,171.25)"><text dy="0.31em" x="6" text-anchor="start" stroke="white">Flora</text><circle fill="#999" r="2.5"/><text dy="0.31em" x="6" text-anchor="start">Flora</text></g><g transform="translate(763.2,191.25)"><text dy="0.31em" x="6" text-anchor="start" stroke="white">Living Thing Part Other</text><circle fill="#999" r="2.5"/><text dy="0.31em" x="6" text-anchor="start">Living Thing Part Other</text></g><g transform="translate(763.2,201.25)"><text dy="0.31em" x="6" text-anchor="start" stroke="white">Animal Part</text><circle fill="#999" r="2.5"/><text dy="0.31em" x="6" text-anchor="start">Animal Part</text></g><g transform="translate(763.2,211.25)"><text dy="0.31em" x="6" text-anchor="start" stroke="white">Flora Part</text><circle fill="#999" r="2.5"/><text dy="0.31em" x="6" text-anchor="start">Flora Part</text></g><g transform="translate(763.2,691.25)"><text dy="0.31em" x="6" text-anchor="start" stroke="white">N Location Other</text><circle fill="#999" r="2.5"/><text dy="0.31em" x="6" text-anchor="start">N Location Other</text></g><g transform="translate(763.2,701.25)"><text dy="0.31em" x="6" text-anchor="start" stroke="white">N Country</text><circle fill="#999" r="2.5"/><text dy="0.31em" x="6" text-anchor="start">N Country</text></g><g transform="translate(763.2,726.25)"><text dy="0.31em" x="6" text-anchor="start" stroke="white">N Natural Object Other</text><circle fill="#999" r="2.5"/><text dy="0.31em" x="6" text-anchor="start">N Natural Object Other</text></g><g transform="translate(763.2,736.25)"><text dy="0.31em" x="6" text-anchor="start" stroke="white">N Animal</text><circle fill="#999" r="2.5"/><text dy="0.31em" x="6" text-anchor="start">N Animal</text></g><g transform="translate(763.2,746.25)"><text dy="0.31em" x="6" text-anchor="start" stroke="white">N Flora</text><circle fill="#999" r="2.5"/><text dy="0.31em" x="6" text-anchor="start">N Flora</text></g></g></g></svg>